<svg width="57" height="183" viewBox="0 0 57 183" fill="none" xmlns="http://www.w3.org/2000/svg">
<path d="M169.822 59.2366C181.426 91.8776 159.105 129.646 119.923 143.576C80.7413 157.506 39.5885 142.304 27.9839 109.663C16.3793 77.022 38.7004 39.2541 77.8823 25.3241C117.064 11.394 158.217 26.5956 169.822 59.2366Z" stroke="white" stroke-width="0.173201"/>
<path d="M163.661 64.8241C174.673 95.7995 153.491 131.641 116.307 144.861C79.1221 158.081 40.0685 143.654 29.0561 112.679C18.0436 81.7036 39.2256 45.8616 76.4101 32.6417C113.595 19.4217 152.648 33.8487 163.661 64.8241Z" stroke="white" stroke-width="0.173201"/>
<path d="M155.54 70.9297C165.991 100.327 145.888 134.344 110.596 146.892C75.3038 159.439 38.239 145.746 27.7876 116.348C17.3362 86.9509 37.4389 52.9335 72.7311 40.3863C108.023 27.8392 145.088 41.5323 155.54 70.9297Z" stroke="white" stroke-width="0.173201"/>
<path d="M155.287 77.4561C165.738 106.853 145.636 140.871 110.343 153.418C75.0511 165.965 37.9863 152.272 27.5349 122.875C17.0835 93.4773 37.1862 59.4598 72.4784 46.9127C107.771 34.3655 144.836 48.0587 155.287 77.4561Z" stroke="white" stroke-width="0.173201"/>
<path d="M155.034 83.9825C165.486 113.38 145.383 147.397 110.091 159.944C74.7987 172.492 37.7338 158.799 27.2824 129.401C16.831 100.004 36.9337 65.9863 72.226 53.4392C107.518 40.892 144.583 54.5852 155.034 83.9825Z" stroke="white" stroke-width="0.173201"/>
</svg>
